<?xml version="1.0" encoding="UTF-8" ?>
<svg width="347pt" height="177pt" viewBox="0 0 347 177" version="1.1" xmlns="http://www.w3.org/2000/svg">
<g id="#eed000ff">
<path fill="#eed000" opacity="1.00" d=" M 0.00 0.00 L 0.01 0.00 C 0.01 0.02 0.00 0.06 0.00 0.08 L 0.00 0.00 Z" />
<path fill="#eed000" opacity="1.00" d=" M 118.60 117.88 C 121.40 112.26 126.45 108.13 132.10 105.57 C 130.79 109.54 129.82 113.63 129.90 117.85 C 132.57 117.88 135.27 117.68 137.91 118.17 C 140.31 118.96 141.91 121.38 141.94 123.88 C 142.38 131.48 141.42 139.14 142.40 146.71 C 142.73 149.13 143.37 151.81 141.98 154.03 C 140.73 156.56 137.56 156.96 135.05 156.88 C 120.51 156.82 105.98 156.92 91.45 156.81 C 90.34 155.70 89.23 154.60 88.11 153.51 C 88.11 151.24 88.16 148.96 88.39 146.70 C 88.87 142.35 88.64 137.96 88.72 133.60 C 88.93 129.53 88.32 125.39 89.19 121.38 C 90.22 119.72 91.83 117.99 93.94 118.01 C 98.61 117.79 103.29 118.05 107.97 117.94 C 111.52 117.89 115.06 117.90 118.60 117.88 M 103.03 131.01 C 100.84 134.17 98.62 137.31 96.46 140.48 C 96.50 140.99 96.57 142.00 96.61 142.51 C 98.95 142.53 101.29 142.53 103.64 142.53 C 103.66 143.28 103.70 144.79 103.72 145.54 C 104.60 145.47 105.48 145.44 106.37 145.43 C 106.35 144.71 106.32 143.28 106.31 142.56 C 106.69 142.55 107.44 142.52 107.82 142.51 L 107.85 140.52 C 107.47 140.49 106.70 140.45 106.32 140.42 C 106.33 137.28 106.34 134.14 106.33 131.00 C 105.50 131.00 103.85 131.01 103.03 131.01 M 113.04 131.16 C 112.15 131.57 111.46 132.19 110.95 133.02 C 110.67 136.32 110.67 139.66 110.92 142.97 C 111.36 145.77 114.77 145.62 116.93 145.59 C 118.74 145.74 121.41 145.18 121.47 142.92 C 121.50 139.52 121.91 136.00 121.16 132.68 C 119.31 130.18 115.70 131.00 113.04 131.16 M 124.29 140.38 C 124.30 140.92 124.31 142.01 124.32 142.56 C 126.72 142.54 129.11 142.53 131.50 142.52 C 131.48 143.27 131.44 144.77 131.42 145.52 C 132.00 145.54 133.17 145.60 133.76 145.62 C 134.25 144.37 133.55 142.33 135.51 142.22 C 135.52 141.85 135.52 141.12 135.53 140.76 C 135.18 140.61 134.48 140.32 134.12 140.17 C 133.95 137.12 134.10 134.06 134.07 131.01 C 133.26 131.00 131.64 130.99 130.83 130.99 C 128.63 134.10 126.42 137.21 124.29 140.38 Z" />
<path fill="#eed000" opacity="1.00" d=" M 113.75 133.07 C 115.28 133.01 116.83 132.98 118.37 132.97 C 119.08 136.36 118.75 139.84 118.78 143.28 C 117.10 143.31 115.43 143.47 113.76 143.55 C 113.43 140.07 113.42 136.56 113.75 133.07 Z" />
<path fill="#eed000" opacity="1.00" d=" M 99.32 140.49 C 100.77 138.46 102.21 136.42 103.71 134.43 C 103.69 136.44 103.67 138.46 103.66 140.47 C 102.21 140.48 100.77 140.48 99.32 140.49 Z" />
<path fill="#eed000" opacity="1.00" d=" M 127.19 140.49 C 128.41 138.45 129.84 136.54 131.41 134.76 C 131.47 136.66 131.48 138.57 131.49 140.48 C 130.05 140.48 128.62 140.48 127.19 140.49 Z" />
</g>
<g id="#bcd8efff">
<path fill="#bcd8ef" opacity="1.00" d=" M 198.64 0.00 L 201.10 0.00 C 204.94 1.86 201.94 7.04 198.27 5.37 C 195.24 8.52 193.49 12.61 191.50 16.44 C 191.14 17.54 190.90 18.68 190.60 19.81 C 190.37 19.33 189.89 18.36 189.66 17.88 C 190.03 16.03 190.54 14.21 191.32 12.49 C 193.14 7.92 197.68 5.00 198.64 0.00 Z" />
<path fill="#bcd8ef" opacity="1.00" d=" M 171.61 28.52 C 179.16 25.62 187.67 28.36 193.76 33.23 C 197.45 36.23 201.62 39.87 201.81 45.00 C 202.31 51.05 198.08 56.07 193.89 59.88 C 186.94 65.92 178.41 69.94 169.66 72.62 C 165.05 68.50 159.35 65.44 153.14 64.78 C 148.08 59.41 149.17 51.20 151.95 44.98 C 155.36 36.66 163.50 31.52 171.61 28.52 M 177.70 47.59 C 176.69 49.48 178.86 50.67 179.98 51.75 C 181.07 50.71 183.37 49.97 182.67 48.03 C 182.07 45.66 178.64 45.17 177.70 47.59 M 164.20 57.23 C 162.85 57.90 161.76 59.77 162.92 61.09 C 163.83 62.82 166.37 62.93 167.30 61.18 C 169.09 59.45 166.30 56.13 164.20 57.23 Z" />
<path fill="#bcd8ef" opacity="1.00" d=" M 180.35 73.63 C 190.91 68.09 201.37 62.33 211.59 56.18 C 212.64 56.94 213.70 57.68 214.77 58.42 C 208.03 62.11 201.35 65.90 194.75 69.84 C 193.61 70.74 191.91 71.41 191.62 72.99 C 193.01 76.79 195.28 80.19 196.96 83.86 C 196.43 84.33 195.36 85.25 194.83 85.72 C 192.26 82.09 190.61 77.92 188.10 74.25 C 186.12 75.32 184.13 76.39 182.23 77.62 C 181.62 76.28 180.99 74.95 180.35 73.63 Z" />
</g>
<g id="#7bbff3ff">
<path fill="#7bbff3" opacity="1.00" d=" M 138.81 12.94 C 153.57 7.98 170.45 9.58 183.83 17.62 C 178.05 17.84 172.30 19.31 167.35 22.37 C 159.69 26.68 152.22 31.91 147.20 39.28 C 146.60 39.02 145.40 38.51 144.80 38.26 C 142.99 38.78 141.24 40.21 139.31 39.83 C 136.75 35.53 139.33 29.63 144.02 28.37 C 146.15 30.60 147.85 33.32 150.67 34.80 C 150.62 31.32 149.27 28.07 148.16 24.83 C 146.44 24.19 144.72 23.56 143.01 22.91 C 142.16 22.52 141.32 22.12 140.48 21.70 C 140.09 18.75 139.52 15.83 138.81 12.94 Z" />
</g>
<g id="#6cb8f2ff">
<path fill="#6cb8f2" opacity="1.00" d=" M 107.05 40.89 C 113.48 27.92 125.03 17.51 138.81 12.94 C 139.52 15.83 140.09 18.75 140.48 21.70 C 141.32 22.12 142.16 22.52 143.01 22.91 C 142.50 22.82 141.49 22.63 140.99 22.53 C 137.83 25.54 134.44 28.39 131.83 31.89 C 130.53 35.45 131.70 39.34 132.14 42.97 C 128.44 47.32 124.94 52.17 124.00 57.95 C 122.12 68.67 125.66 80.95 134.90 87.34 C 136.79 93.25 139.53 98.96 143.57 103.72 C 140.03 103.04 136.55 102.04 132.96 101.71 C 127.43 101.41 121.93 103.33 117.42 106.45 C 113.25 109.32 110.82 113.89 107.97 117.94 C 103.29 118.05 98.61 117.79 93.94 118.01 C 91.83 117.99 90.22 119.72 89.19 121.38 C 88.32 125.39 88.93 129.53 88.72 133.60 C 84.39 132.87 79.59 132.12 75.64 134.60 C 71.06 136.91 68.46 141.72 67.83 146.67 C 50.22 146.72 32.62 146.67 15.01 146.70 C 10.01 146.72 4.99 146.44 0.01 147.07 L 0.00 146.83 L 0.00 145.95 C 2.08 135.30 10.59 126.42 21.18 123.96 C 20.84 113.67 24.61 103.25 31.91 95.92 C 40.27 87.24 52.98 83.15 64.85 85.14 C 62.30 72.96 65.92 59.58 74.97 50.91 C 83.24 42.61 95.55 38.97 107.05 40.89 Z" />
</g>
<g id="#ffffffff">
<path fill="#ffffff" opacity="1.00" d=" M 190.60 19.81 C 190.90 18.68 191.14 17.54 191.50 16.44 C 191.67 16.71 192.02 17.27 192.19 17.55 C 196.22 20.00 200.90 21.24 204.88 23.84 C 211.03 27.55 217.10 31.88 221.08 38.00 C 222.68 40.38 223.35 43.52 222.16 46.23 C 220.57 49.79 217.20 52.04 214.24 54.37 C 214.98 51.05 216.16 47.23 213.90 44.22 C 207.31 34.47 196.84 28.04 186.06 23.84 C 180.04 21.56 173.60 22.60 167.35 22.37 C 172.30 19.31 178.05 17.84 183.83 17.62 C 185.77 17.73 187.71 17.79 189.66 17.88 C 189.89 18.36 190.37 19.33 190.60 19.81 Z" />
<path fill="#ffffff" opacity="1.00" d=" M 216.65 57.39 C 220.57 55.45 224.54 52.71 229.14 53.15 C 234.14 53.62 238.14 57.36 240.74 61.43 C 249.60 74.73 252.26 91.20 251.55 106.93 C 251.52 111.46 251.08 116.21 248.28 119.96 C 245.37 121.87 241.97 122.71 238.53 122.76 C 241.67 109.66 240.66 95.90 236.85 83.05 C 236.07 83.83 235.81 86.02 234.33 85.19 C 235.64 78.41 235.54 71.20 233.30 64.63 C 232.14 61.71 228.86 61.01 226.06 60.85 C 223.35 58.70 220.01 57.87 216.65 57.39 Z" />
</g>
<g id="#8dcaf5ff">
<path fill="#8dcaf5" opacity="1.00" d=" M 204.88 23.84 C 210.07 21.28 215.87 20.12 221.65 20.20 C 224.50 26.55 228.01 32.58 231.33 38.68 C 237.61 47.56 244.51 56.19 253.11 62.96 C 260.83 68.86 268.70 74.83 277.94 78.16 C 284.92 81.84 292.62 83.60 300.19 85.65 C 301.78 86.03 303.39 85.40 304.97 85.24 C 327.11 86.47 345.85 106.56 346.83 128.53 C 346.00 127.10 345.16 125.68 344.25 124.31 C 340.03 124.21 335.96 125.58 331.75 125.52 C 325.24 125.53 318.74 125.62 312.23 125.42 C 307.70 125.13 303.23 124.28 298.72 123.79 C 294.31 123.35 290.14 121.75 285.75 121.19 C 284.46 119.80 283.70 117.19 281.39 117.43 C 277.76 112.41 273.01 107.82 266.84 106.24 C 261.83 104.56 256.44 105.18 251.55 106.93 C 252.26 91.20 249.60 74.73 240.74 61.43 C 238.14 57.36 234.14 53.62 229.14 53.15 C 224.54 52.71 220.57 55.45 216.65 57.39 C 216.18 57.65 215.24 58.16 214.77 58.42 C 213.70 57.68 212.64 56.94 211.59 56.18 C 212.48 55.59 213.36 54.99 214.24 54.37 C 217.20 52.04 220.57 49.79 222.16 46.23 C 223.35 43.52 222.68 40.38 221.08 38.00 C 217.10 31.88 211.03 27.55 204.88 23.84 Z" />
</g>
<g id="#9ad2f7ff">
<path fill="#9ad2f7" opacity="1.00" d=" M 221.65 20.20 C 236.05 20.43 249.37 30.02 254.72 43.29 C 260.81 41.84 267.22 42.51 272.99 44.89 C 284.78 41.49 298.35 46.78 304.49 57.45 C 309.68 65.82 309.37 76.60 304.97 85.24 C 303.39 85.40 301.78 86.03 300.19 85.65 C 292.62 83.60 284.92 81.84 277.94 78.16 C 268.70 74.83 260.83 68.86 253.11 62.96 C 244.51 56.19 237.61 47.56 231.33 38.68 C 228.01 32.58 224.50 26.55 221.65 20.20 Z" />
</g>
<g id="#e0f2ffff">
<path fill="#e0f2ff" opacity="1.00" d=" M 147.20 39.28 C 152.22 31.91 159.69 26.68 167.35 22.37 C 173.60 22.60 180.04 21.56 186.06 23.84 C 196.84 28.04 207.31 34.47 213.90 44.22 C 216.16 47.23 214.98 51.05 214.24 54.37 C 213.36 54.99 212.48 55.59 211.59 56.18 C 201.37 62.33 190.91 68.09 180.35 73.63 C 178.11 74.72 175.82 75.70 173.54 76.69 C 172.34 75.24 171.02 73.90 169.66 72.62 C 178.41 69.94 186.94 65.92 193.89 59.88 C 198.08 56.07 202.31 51.05 201.81 45.00 C 201.62 39.87 197.45 36.23 193.76 33.23 C 187.67 28.36 179.16 25.62 171.61 28.52 C 163.50 31.52 155.36 36.66 151.95 44.98 C 149.17 51.20 148.08 59.41 153.14 64.78 C 151.69 64.74 150.25 64.76 148.80 64.83 C 144.22 59.03 142.21 51.13 144.76 44.01 C 145.49 42.39 146.29 40.80 147.20 39.28 Z" />
<path fill="#e0f2ff" opacity="1.00" d=" M 214.77 58.42 C 215.24 58.16 216.18 57.65 216.65 57.39 C 220.01 57.87 223.35 58.70 226.06 60.85 C 225.17 63.48 224.61 66.25 225.09 69.02 C 226.29 78.52 225.25 88.74 219.94 96.93 C 214.36 105.75 204.58 111.08 194.60 113.31 C 193.49 109.15 192.26 105.00 190.32 101.14 C 188.02 96.59 185.58 92.12 183.35 87.55 C 181.83 84.49 180.18 80.87 182.23 77.62 C 184.13 76.39 186.12 75.32 188.10 74.25 C 190.61 77.92 192.26 82.09 194.83 85.72 C 195.36 85.25 196.43 84.33 196.96 83.86 C 195.28 80.19 193.01 76.79 191.62 72.99 C 191.91 71.41 193.61 70.74 194.75 69.84 C 201.35 65.90 208.03 62.11 214.77 58.42 Z" />
<path fill="#e0f2ff" opacity="1.00" d=" M 234.33 85.19 C 235.81 86.02 236.07 83.83 236.85 83.05 C 240.66 95.90 241.67 109.66 238.53 122.76 L 238.53 122.83 C 229.62 123.02 220.76 124.10 211.88 124.75 C 208.32 125.13 204.66 125.41 201.18 124.35 C 199.06 122.82 197.70 120.56 196.58 118.26 C 205.37 115.68 213.87 111.75 221.00 105.94 C 227.63 100.79 232.60 93.47 234.33 85.19 Z" />
<path fill="#e0f2ff" opacity="1.00" d=" M 0.01 147.07 C 4.99 146.44 10.01 146.72 15.01 146.70 C 32.62 146.67 50.22 146.72 67.83 146.67 C 74.68 146.66 81.53 146.64 88.39 146.70 C 88.16 148.96 88.11 151.24 88.11 153.51 C 89.23 154.60 90.34 155.70 91.45 156.81 C 105.98 156.92 120.51 156.82 135.05 156.88 C 137.56 156.96 140.73 156.56 141.98 154.03 C 143.37 151.81 142.73 149.13 142.40 146.71 C 161.80 146.58 181.20 146.75 200.60 146.62 C 200.50 147.38 200.29 148.90 200.19 149.66 C 197.84 150.04 195.32 149.93 193.16 151.04 C 191.83 152.50 191.75 154.61 191.11 156.40 C 195.42 156.39 199.75 156.67 204.05 156.25 C 205.29 153.23 204.58 149.72 206.17 146.76 C 217.22 146.59 228.27 146.72 239.32 146.69 C 239.27 147.43 239.19 148.92 239.14 149.67 C 236.81 150.04 234.30 149.94 232.15 151.03 C 230.80 152.51 230.71 154.63 230.11 156.45 C 234.53 156.46 238.95 156.42 243.37 156.43 C 243.55 153.97 243.81 151.51 244.07 149.06 C 244.25 148.49 244.62 147.34 244.80 146.77 C 264.52 146.66 284.23 146.72 303.95 146.70 C 317.33 146.92 330.75 146.22 344.10 147.09 C 338.57 151.06 331.59 151.98 324.98 152.41 C 319.55 152.79 313.65 151.88 308.76 154.84 C 305.99 156.31 304.38 159.74 301.00 159.96 C 294.40 160.87 287.72 160.26 281.09 160.21 C 272.91 160.06 264.24 158.86 256.51 162.23 C 253.27 163.49 252.02 166.81 250.48 169.61 C 248.28 171.06 245.57 171.45 243.05 172.05 C 232.83 173.95 222.43 174.58 212.08 175.34 C 178.78 177.19 145.37 177.32 112.05 176.00 C 98.27 175.27 84.42 174.64 70.84 172.07 C 67.21 171.23 63.03 170.58 60.67 167.36 C 63.94 162.64 70.63 162.16 73.42 157.08 C 69.19 154.19 63.92 154.05 58.99 153.62 C 42.51 152.74 25.95 152.40 9.59 150.08 C 6.31 149.44 2.76 149.16 0.01 147.07 Z" />
</g>
<g id="#477b96ff">
<path fill="#477b96" opacity="1.00" d=" M 131.83 31.89 C 134.44 28.39 137.83 25.54 140.99 22.53 C 141.49 22.63 142.50 22.82 143.01 22.91 C 144.72 23.56 146.44 24.19 148.16 24.83 C 149.27 28.07 150.62 31.32 150.67 34.80 C 147.85 33.32 146.15 30.60 144.02 28.37 C 139.33 29.63 136.75 35.53 139.31 39.83 C 141.24 40.21 142.99 38.78 144.80 38.26 C 145.40 38.51 146.60 39.02 147.20 39.28 C 146.29 40.80 145.49 42.39 144.76 44.01 C 142.18 45.07 139.51 45.93 136.90 46.90 C 133.93 47.84 132.89 51.19 131.73 53.75 C 129.05 61.77 129.61 71.11 134.27 78.31 C 134.14 81.33 134.37 84.36 134.90 87.34 C 125.66 80.95 122.12 68.67 124.00 57.95 C 124.94 52.17 128.44 47.32 132.14 42.97 C 131.70 39.34 130.53 35.45 131.83 31.89 Z" />
<path fill="#477b96" opacity="1.00" d=" M 226.06 60.85 C 228.86 61.01 232.14 61.71 233.30 64.63 C 235.54 71.20 235.64 78.41 234.33 85.19 C 232.60 93.47 227.63 100.79 221.00 105.94 C 213.87 111.75 205.37 115.68 196.58 118.26 C 195.20 118.65 193.81 119.00 192.42 119.38 C 192.41 122.31 192.26 125.89 188.89 126.87 C 186.77 127.37 184.64 127.81 182.51 128.17 C 181.57 127.46 180.65 126.74 179.74 126.01 C 178.48 125.35 177.20 124.73 175.91 124.14 C 176.26 123.19 176.62 122.25 176.98 121.30 C 175.82 120.88 174.66 120.47 173.50 120.06 C 173.75 119.52 174.26 118.43 174.52 117.89 C 176.11 117.09 177.75 116.41 179.39 115.71 C 178.43 114.24 177.48 112.78 176.48 111.35 C 180.98 110.54 185.55 111.41 189.16 114.30 C 190.98 114.00 192.80 113.70 194.60 113.31 C 204.58 111.08 214.36 105.75 219.94 96.93 C 225.25 88.74 226.29 78.52 225.09 69.02 C 224.61 66.25 225.17 63.48 226.06 60.85 Z" />
<path fill="#477b96" opacity="1.00" d=" M 238.53 122.76 C 241.97 122.71 245.37 121.87 248.28 119.96 C 246.74 129.64 245.95 139.43 244.07 149.06 C 243.81 151.51 243.55 153.97 243.37 156.43 C 238.95 156.42 234.53 156.46 230.11 156.45 C 230.71 154.63 230.80 152.51 232.15 151.03 C 234.30 149.94 236.81 150.04 239.14 149.67 C 239.19 148.92 239.27 147.43 239.32 146.69 C 239.76 138.73 239.54 130.74 238.53 122.83 L 238.53 122.76 Z" />
<path fill="#477b96" opacity="1.00" d=" M 201.18 124.35 C 204.66 125.41 208.32 125.13 211.88 124.75 C 210.24 132.15 208.88 139.66 206.17 146.76 C 204.58 149.72 205.29 153.23 204.05 156.25 C 199.75 156.67 195.42 156.39 191.11 156.40 C 191.75 154.61 191.83 152.50 193.16 151.04 C 195.32 149.93 197.84 150.04 200.19 149.66 C 200.29 148.90 200.50 147.38 200.60 146.62 C 201.52 139.24 201.94 131.76 201.18 124.35 Z" />
</g>
<g id="#73baf3ff">
<path fill="#73baf3" opacity="1.00" d=" M 136.90 46.90 C 139.51 45.93 142.18 45.07 144.76 44.01 C 142.21 51.13 144.22 59.03 148.80 64.83 C 145.52 65.46 142.12 66.30 139.44 68.40 C 136.57 70.95 135.20 74.69 134.27 78.31 C 129.61 71.11 129.05 61.77 131.73 53.75 C 132.89 51.19 133.93 47.84 136.90 46.90 Z" />
</g>
<g id="#3e7591ff">
<path fill="#3e7591" opacity="1.00" d=" M 177.70 47.59 C 178.64 45.17 182.07 45.66 182.67 48.03 C 183.37 49.97 181.07 50.71 179.98 51.75 C 178.86 50.67 176.69 49.48 177.70 47.59 Z" />
</g>
<g id="#487c97ff">
<path fill="#487c97" opacity="1.00" d=" M 164.20 57.23 C 166.30 56.13 169.09 59.45 167.30 61.18 C 166.37 62.93 163.83 62.82 162.92 61.09 C 161.76 59.77 162.85 57.90 164.20 57.23 Z" />
</g>
<g id="#ff4f09ff">
<path fill="#ff4f09" opacity="1.00" d=" M 139.44 68.40 C 142.12 66.30 145.52 65.46 148.80 64.83 C 150.25 64.76 151.69 64.74 153.14 64.78 C 159.35 65.44 165.05 68.50 169.66 72.62 C 171.02 73.90 172.34 75.24 173.54 76.69 C 174.67 78.16 175.75 79.67 176.74 81.23 C 178.13 83.63 179.24 86.18 180.08 88.82 C 180.91 92.12 181.06 95.56 180.48 98.91 C 179.44 102.70 177.34 106.08 174.68 108.96 C 175.29 109.75 175.88 110.55 176.48 111.35 C 177.48 112.78 178.43 114.24 179.39 115.71 C 177.75 116.41 176.11 117.09 174.52 117.89 C 173.06 115.79 171.41 113.83 169.79 111.85 C 160.29 114.69 149.98 111.07 143.57 103.72 C 139.53 98.96 136.79 93.25 134.90 87.34 C 134.37 84.36 134.14 81.33 134.27 78.31 C 135.20 74.69 136.57 70.95 139.44 68.40 M 143.59 72.75 C 140.27 74.57 138.89 78.35 138.67 81.94 C 139.05 84.74 139.31 87.60 140.43 90.23 C 142.62 96.96 147.32 102.72 153.51 106.18 C 156.52 107.56 159.70 108.91 163.10 108.72 C 167.51 108.66 171.87 105.58 172.81 101.15 C 173.10 97.98 172.69 94.81 171.92 91.74 C 170.94 89.20 169.88 86.70 168.70 84.24 C 165.82 79.88 161.73 76.40 157.25 73.77 C 153.17 71.55 147.80 69.97 143.59 72.75 Z" />
<path fill="#ff4f09" opacity="1.00" d=" M 182.51 128.17 C 184.64 127.81 186.77 127.37 188.89 126.87 C 191.01 129.82 193.81 132.44 195.09 135.90 C 194.89 138.41 191.32 138.98 189.87 137.18 C 187.24 134.33 185.21 130.96 182.51 128.17 Z" />
</g>
<g id="#abd7f7ff">
<path fill="#abd7f7" opacity="1.00" d=" M 143.59 72.75 C 147.80 69.97 153.17 71.55 157.25 73.77 C 161.73 76.40 165.82 79.88 168.70 84.24 C 158.76 86.89 148.13 85.87 138.67 81.94 C 138.89 78.35 140.27 74.57 143.59 72.75 Z" />
<path fill="#abd7f7" opacity="1.00" d=" M 140.43 90.23 C 150.04 95.53 161.66 94.23 171.92 91.74 C 172.69 94.81 173.10 97.98 172.81 101.15 C 172.57 100.70 172.09 99.80 171.86 99.35 C 165.20 99.83 159.28 103.12 153.51 106.18 C 147.32 102.72 142.62 96.96 140.43 90.23 Z" />
</g>
<g id="#7bbff2ff">
<path fill="#7bbff2" opacity="1.00" d=" M 173.54 76.69 C 175.82 75.70 178.11 74.72 180.35 73.63 C 180.99 74.95 181.62 76.28 182.23 77.62 C 180.42 78.85 178.58 80.05 176.74 81.23 C 175.75 79.67 174.67 78.16 173.54 76.69 Z" />
</g>
<g id="#3b7591ff">
<path fill="#3b7591" opacity="1.00" d=" M 176.74 81.23 C 178.58 80.05 180.42 78.85 182.23 77.62 C 180.18 80.87 181.83 84.49 183.35 87.55 C 182.26 87.97 181.17 88.40 180.08 88.82 C 179.24 86.18 178.13 83.63 176.74 81.23 Z" />
</g>
<g id="#90afc0ff">
<path fill="#90afc0" opacity="1.00" d=" M 138.67 81.94 C 148.13 85.87 158.76 86.89 168.70 84.24 C 169.88 86.70 170.94 89.20 171.92 91.74 C 161.66 94.23 150.04 95.53 140.43 90.23 C 139.31 87.60 139.05 84.74 138.67 81.94 Z" />
</g>
<g id="#78bff3ff">
<path fill="#78bff3" opacity="1.00" d=" M 180.08 88.82 C 181.17 88.40 182.26 87.97 183.35 87.55 C 185.58 92.12 188.02 96.59 190.32 101.14 L 189.85 101.86 C 186.70 100.95 183.61 99.87 180.48 98.91 C 181.06 95.56 180.91 92.12 180.08 88.82 Z" />
</g>
<g id="#bde3ffff">
<path fill="#bde3ff" opacity="1.00" d=" M 153.51 106.18 C 159.28 103.12 165.20 99.83 171.86 99.35 C 172.09 99.80 172.57 100.70 172.81 101.15 C 171.87 105.58 167.51 108.66 163.10 108.72 C 159.70 108.91 156.52 107.56 153.51 106.18 Z" />
</g>
<g id="#93d0ffff">
<path fill="#93d0ff" opacity="1.00" d=" M 180.48 98.91 C 183.61 99.87 186.70 100.95 189.85 101.86 L 190.32 101.14 C 192.26 105.00 193.49 109.15 194.60 113.31 C 192.80 113.70 190.98 114.00 189.16 114.30 C 185.55 111.41 180.98 110.54 176.48 111.35 C 175.88 110.55 175.29 109.75 174.68 108.96 C 177.34 106.08 179.44 102.70 180.48 98.91 Z" />
<path fill="#93d0ff" opacity="1.00" d=" M 211.88 124.75 C 220.76 124.10 229.62 123.02 238.53 122.83 C 239.54 130.74 239.76 138.73 239.32 146.69 C 228.27 146.72 217.22 146.59 206.17 146.76 C 208.88 139.66 210.24 132.15 211.88 124.75 Z" />
</g>
<g id="#8cccffff">
<path fill="#8cccff" opacity="1.00" d=" M 117.42 106.45 C 121.93 103.33 127.43 101.41 132.96 101.71 C 136.55 102.04 140.03 103.04 143.57 103.72 C 149.98 111.07 160.29 114.69 169.79 111.85 C 171.41 113.83 173.06 115.79 174.52 117.89 C 174.26 118.43 173.75 119.52 173.50 120.06 C 174.66 120.47 175.82 120.88 176.98 121.30 C 176.62 122.25 176.26 123.19 175.91 124.14 C 177.20 124.73 178.48 125.35 179.74 126.01 C 180.65 126.74 181.57 127.46 182.51 128.17 C 185.21 130.96 187.24 134.33 189.87 137.18 C 191.32 138.98 194.89 138.41 195.09 135.90 C 193.81 132.44 191.01 129.82 188.89 126.87 C 192.26 125.89 192.41 122.31 192.42 119.38 C 193.81 119.00 195.20 118.65 196.58 118.26 C 197.70 120.56 199.06 122.82 201.18 124.35 C 201.94 131.76 201.52 139.24 200.60 146.62 C 181.20 146.75 161.80 146.58 142.40 146.71 C 141.42 139.14 142.38 131.48 141.94 123.88 C 141.91 121.38 140.31 118.96 137.91 118.17 C 135.27 117.68 132.57 117.88 129.90 117.85 C 129.82 113.63 130.79 109.54 132.10 105.57 C 126.45 108.13 121.40 112.26 118.60 117.88 C 115.06 117.90 111.52 117.89 107.97 117.94 C 110.82 113.89 113.25 109.32 117.42 106.45 Z" />
<path fill="#8cccff" opacity="1.00" d=" M 75.64 134.60 C 79.59 132.12 84.39 132.87 88.72 133.60 C 88.64 137.96 88.87 142.35 88.39 146.70 C 81.53 146.64 74.68 146.66 67.83 146.67 C 68.46 141.72 71.06 136.91 75.64 134.60 Z" />
</g>
<g id="#9cd3ffff">
<path fill="#9cd3ff" opacity="1.00" d=" M 251.55 106.93 C 256.44 105.18 261.83 104.56 266.84 106.24 C 273.01 107.82 277.76 112.41 281.39 117.43 C 282.88 120.29 283.86 123.38 284.77 126.47 C 289.90 126.31 295.49 126.87 299.33 130.69 C 303.88 134.66 304.79 141.01 303.95 146.70 C 284.23 146.72 264.52 146.66 244.80 146.77 C 244.62 147.34 244.25 148.49 244.07 149.06 C 245.95 139.43 246.74 129.64 248.28 119.96 C 251.08 116.21 251.52 111.46 251.55 106.93 Z" />
</g>
<g id="#7fc3f4ff">
<path fill="#7fc3f4" opacity="1.00" d=" M 281.39 117.43 C 283.70 117.19 284.46 119.80 285.75 121.19 C 290.14 121.75 294.31 123.35 298.72 123.79 C 303.23 124.28 307.70 125.13 312.23 125.42 C 318.74 125.62 325.24 125.53 331.75 125.52 C 335.96 125.58 340.03 124.21 344.25 124.31 C 345.16 125.68 346.00 127.10 346.83 128.53 C 347.06 134.77 346.85 141.36 344.10 147.09 C 330.75 146.22 317.33 146.92 303.95 146.70 C 304.79 141.01 303.88 134.66 299.33 130.69 C 295.49 126.87 289.90 126.31 284.77 126.47 C 283.86 123.38 282.88 120.29 281.39 117.43 Z" />
</g>
<g id="#000000ff">
<path fill="#000000" opacity="1.00" d=" M 103.03 131.01 C 103.85 131.01 105.50 131.00 106.33 131.00 C 106.34 134.14 106.33 137.28 106.32 140.42 C 106.70 140.45 107.47 140.49 107.85 140.52 L 107.82 142.51 C 107.44 142.52 106.69 142.55 106.31 142.56 C 106.32 143.28 106.35 144.71 106.37 145.43 C 105.48 145.44 104.60 145.47 103.72 145.54 C 103.70 144.79 103.66 143.28 103.64 142.53 C 101.29 142.53 98.95 142.53 96.61 142.51 C 96.57 142.00 96.50 140.99 96.46 140.48 C 98.62 137.31 100.84 134.17 103.03 131.01 M 99.32 140.49 C 100.77 140.48 102.21 140.48 103.66 140.47 C 103.67 138.46 103.69 136.44 103.71 134.43 C 102.21 136.42 100.77 138.46 99.32 140.49 Z" />
<path fill="#000000" opacity="1.00" d=" M 113.04 131.16 C 115.70 131.00 119.31 130.18 121.16 132.68 C 121.91 136.00 121.50 139.52 121.47 142.92 C 121.41 145.18 118.74 145.74 116.93 145.59 C 114.77 145.62 111.36 145.77 110.92 142.97 C 110.67 139.66 110.67 136.32 110.95 133.02 C 111.46 132.19 112.15 131.57 113.04 131.16 M 113.75 133.07 C 113.42 136.56 113.43 140.07 113.76 143.55 C 115.43 143.47 117.10 143.31 118.78 143.28 C 118.75 139.84 119.08 136.36 118.37 132.97 C 116.83 132.98 115.28 133.01 113.75 133.07 Z" />
<path fill="#000000" opacity="1.00" d=" M 124.29 140.38 C 126.42 137.21 128.63 134.10 130.83 130.99 C 131.64 130.99 133.26 131.00 134.07 131.01 C 134.10 134.06 133.95 137.12 134.12 140.17 C 134.48 140.32 135.18 140.61 135.53 140.76 C 135.52 141.12 135.52 141.85 135.51 142.22 C 133.55 142.33 134.25 144.37 133.76 145.62 C 133.17 145.60 132.00 145.54 131.42 145.52 C 131.44 144.77 131.48 143.27 131.50 142.52 C 129.11 142.53 126.72 142.54 124.32 142.56 C 124.31 142.01 124.30 140.92 124.29 140.38 M 127.19 140.49 C 128.62 140.48 130.05 140.48 131.49 140.48 C 131.48 138.57 131.47 136.66 131.41 134.76 C 129.84 136.54 128.41 138.45 127.19 140.49 Z" />
</g>
</svg>
