<?xml version="1.0" encoding="UTF-8" ?><!DOCTYPE svg PUBLIC "-//W3C//DTD SVG 1.1//EN" "http://www.w3.org/Graphics/SVG/1.1/DTD/svg11.dtd">
<svg width="175pt" height="55pt" viewBox="0 0 175 55" version="1.1" xmlns="http://www.w3.org/2000/svg">
<g id="#ff0523ff">
<path fill="#ff0523" opacity="1.00" d=" M 0.53 16.99 C 2.18 16.99 3.82 17.00 5.46 17.03 C 8.58 21.18 11.83 25.24 14.98 29.38 C 15.01 25.25 15.00 21.13 15.00 17.00 C 16.87 17.00 18.73 17.00 20.60 17.00 C 20.61 24.50 20.58 32.00 20.61 39.50 C 18.99 39.47 17.37 39.46 15.75 39.47 C 12.54 35.41 9.32 31.36 6.13 27.30 C 6.13 31.35 6.14 35.40 6.13 39.46 C 4.26 39.47 2.39 39.47 0.52 39.49 C 0.55 31.99 0.52 24.49 0.53 16.99 Z" />
<path fill="#ff0523" opacity="1.00" d=" M 28.53 17.00 C 30.44 17.00 32.36 17.00 34.27 17.00 C 34.27 24.49 34.26 31.97 34.27 39.46 C 32.35 39.47 30.43 39.47 28.52 39.49 C 28.55 31.99 28.52 24.50 28.53 17.00 Z" />
<path fill="#ff0523" opacity="1.00" d=" M 43.56 18.54 C 47.93 15.87 53.55 16.82 57.99 18.88 C 57.44 20.33 56.86 21.77 56.24 23.20 C 52.93 22.02 47.98 19.65 45.99 24.06 C 49.57 26.63 54.77 25.85 57.79 29.29 C 59.64 32.22 58.63 36.76 55.36 38.27 C 50.54 40.59 44.72 39.58 40.14 37.12 C 40.73 35.67 41.34 34.23 41.97 32.80 C 44.77 33.83 47.63 35.41 50.72 34.95 C 51.94 34.45 53.36 33.77 52.76 32.19 C 49.90 30.29 46.22 30.44 43.26 28.75 C 39.63 26.61 39.97 20.57 43.56 18.54 Z" />
<path fill="#ff0523" opacity="1.00" d=" M 65.00 17.00 C 66.63 17.00 68.26 17.00 69.90 17.00 C 72.35 21.35 74.87 25.67 77.31 30.02 C 79.66 25.69 82.17 21.46 84.47 17.10 C 86.13 17.03 87.80 17.00 89.47 16.96 C 89.48 24.47 89.44 31.97 89.49 39.47 C 87.69 39.47 85.91 39.47 84.12 39.51 C 84.14 35.62 84.14 31.74 84.12 27.86 C 82.37 30.91 80.63 33.98 78.84 37.01 C 78.04 37.01 76.44 37.00 75.64 37.00 C 73.85 34.04 72.08 31.06 70.36 28.06 C 70.41 31.86 70.40 35.66 70.40 39.47 C 68.60 39.47 66.80 39.47 65.00 39.46 C 65.00 31.98 65.00 24.49 65.00 17.00 Z" />
<path fill="#ff0523" opacity="1.00" d=" M 105.47 17.11 C 109.43 16.54 113.84 17.26 116.80 20.14 C 121.59 24.73 121.10 33.69 115.49 37.42 C 110.57 40.65 103.22 40.32 99.03 36.01 C 96.10 32.99 95.58 28.36 96.69 24.45 C 97.85 20.53 101.57 17.84 105.47 17.11 M 105.30 22.29 C 100.55 24.80 101.04 32.71 106.07 34.58 C 110.94 36.72 115.75 30.64 113.87 26.10 C 112.97 22.58 108.53 20.07 105.30 22.29 Z" />
<path fill="#ff0523" opacity="1.00" d=" M 124.60 17.00 C 130.98 17.00 137.35 17.00 143.73 17.00 C 143.73 18.50 143.74 20.00 143.75 21.50 C 141.54 21.48 139.34 21.47 137.13 21.46 C 137.13 27.46 137.13 33.46 137.13 39.46 C 135.22 39.46 133.30 39.47 131.39 39.50 C 131.41 33.49 131.40 27.48 131.39 21.47 C 129.13 21.47 126.86 21.46 124.59 21.46 C 124.59 19.98 124.60 18.49 124.60 17.00 Z" />
<path fill="#ff0523" opacity="1.00" d=" M 155.36 17.55 C 159.82 16.22 165.26 16.96 168.57 20.44 C 173.24 25.19 172.39 34.23 166.58 37.70 C 161.16 40.95 152.96 40.03 149.37 34.49 C 145.44 28.62 148.26 19.36 155.36 17.55 M 158.57 21.54 C 153.13 22.72 151.61 30.63 156.16 33.79 C 159.27 36.53 164.35 34.29 165.33 30.52 C 167.08 26.28 163.24 20.69 158.57 21.54 Z" />
</g></svg>
