<?xml version="1.0" encoding="UTF-8" ?><!DOCTYPE svg PUBLIC "-//W3C//DTD SVG 1.1//EN" "http://www.w3.org/Graphics/SVG/1.1/DTD/svg11.dtd">
<svg width="175pt" height="55pt" viewBox="0 0 175 55" version="1.1" xmlns="http://www.w3.org/2000/svg">
<g id="#ff0523ff">
<path fill="#ff0523" opacity="1.00" d=" M 0.40 18.00 C 1.31 18.00 3.12 18.00 4.03 18.00 C 7.30 21.82 10.55 25.65 13.75 29.53 C 13.72 25.69 13.73 21.85 13.73 18.00 C 15.24 18.00 16.76 18.00 18.27 18.00 C 18.27 24.33 18.27 30.66 18.27 36.98 C 17.37 37.00 15.57 37.02 14.67 37.03 C 11.29 33.22 8.06 29.29 4.72 25.46 C 4.74 29.30 4.73 33.15 4.74 36.99 C 3.29 37.00 1.85 37.00 0.40 37.00 C 0.40 30.67 0.40 24.33 0.40 18.00 Z" />
<path fill="#ff0523" opacity="1.00" d=" M 25.87 18.00 C 27.38 18.00 28.89 18.00 30.40 18.00 C 30.40 24.33 30.40 30.67 30.40 37.00 C 28.89 37.00 27.38 37.00 25.87 37.00 C 25.87 30.67 25.86 24.33 25.87 18.00 Z" />
<path fill="#ff0523" opacity="1.00" d=" M 39.40 19.24 C 43.24 17.12 47.91 17.89 51.78 19.52 C 51.46 20.33 50.82 21.95 50.50 22.76 C 47.58 21.74 44.20 20.57 41.35 22.43 C 41.31 22.96 41.25 24.01 41.22 24.54 C 44.74 26.37 49.51 25.73 52.15 29.10 C 53.06 31.30 52.48 34.06 50.43 35.40 C 46.11 38.14 40.48 37.17 36.17 34.92 C 36.70 33.86 37.23 32.79 37.76 31.73 C 40.80 33.12 44.64 34.66 47.75 32.58 C 47.83 32.19 47.98 31.41 48.06 31.02 C 45.19 28.28 40.16 29.64 37.51 26.43 C 35.71 24.11 36.84 20.47 39.40 19.24 Z" />
<path fill="#ff0523" opacity="1.00" d=" M 58.39 18.01 C 59.62 18.01 60.85 18.00 62.08 17.99 C 64.49 21.93 66.95 25.83 69.41 29.74 C 71.78 25.89 74.25 22.10 76.45 18.15 C 77.76 18.07 79.08 18.00 80.40 17.95 C 80.40 24.30 80.40 30.65 80.40 37.00 C 78.98 37.00 77.55 37.00 76.13 37.00 C 76.14 33.17 76.13 29.34 76.14 25.51 C 74.10 28.60 72.56 32.13 70.09 34.87 C 69.66 34.93 68.79 35.07 68.36 35.13 C 66.49 32.01 64.54 28.94 62.58 25.88 C 62.61 29.59 62.60 33.30 62.60 37.00 C 61.19 37.00 59.79 36.99 58.39 36.99 C 58.41 30.66 58.40 24.34 58.39 18.01 Z" />
<path fill="#ff0523" opacity="1.00" d=" M 93.35 18.61 C 99.40 16.20 107.82 20.04 108.03 27.04 C 108.57 33.84 100.90 38.45 94.78 36.77 C 90.16 36.05 86.19 31.82 86.57 27.01 C 86.72 23.12 89.65 19.67 93.35 18.61 M 94.29 22.22 C 90.14 24.07 90.15 30.95 94.31 32.79 C 97.94 35.03 103.33 32.32 103.51 28.00 C 104.12 23.26 98.27 19.71 94.29 22.22 Z" />
<path fill="#ff0523" opacity="1.00" d=" M 112.14 18.00 C 117.85 18.00 123.56 18.00 129.26 18.00 C 129.27 18.87 129.27 20.60 129.27 21.46 C 127.14 21.47 125.01 21.47 122.88 21.47 C 122.85 26.64 122.87 31.82 122.87 37.00 C 121.37 37.00 119.88 36.99 118.39 36.99 C 118.40 31.82 118.40 26.65 118.40 21.47 C 116.30 21.47 114.21 21.47 112.11 21.50 C 112.12 20.63 112.13 18.88 112.14 18.00 Z" />
<path fill="#ff0523" opacity="1.00" d=" M 140.38 18.60 C 146.41 16.22 154.78 20.02 155.02 26.99 C 155.61 34.10 147.35 38.73 141.09 36.61 C 136.43 35.65 132.81 30.93 133.65 26.14 C 134.18 22.58 136.95 19.59 140.38 18.60 M 141.28 22.23 C 137.15 24.08 137.14 30.90 141.27 32.76 C 144.90 35.05 150.33 32.33 150.51 27.98 C 151.11 23.25 145.25 19.71 141.28 22.23 Z" />
</g></svg>
