<svg width="175pt" height="55pt" viewBox="0 0 175 55" xmlns="http://www.w3.org/2000/svg"><g fill="#ff0523"><path d="M0 12h31v31H0V12m7 6.73V37h4.27c0-4.08 0-8.16-.02-12.24 2.89 4.08 5.58 8.3 8.57 12.31 1.4-.04 2.79-.07 4.18-.09V18.73c-1.42 0-2.84.01-4.26.01-.01 3.84 0 7.68-.01 11.52-2.56-3.87-5.23-7.66-7.79-11.53-1.65.01-3.29.01-4.94 0ZM36 18.73c1.42 0 2.84.01 4.26.01.01 6.08.01 12.17.01 18.26H36V18.73ZM47.38 19.42c3.78-1.58 8.1-.98 11.94.1-.02.92-.05 2.75-.06 3.67-3.07-.66-6.44-1.6-9.5-.45-1.64.67-.31 2.39.9 2.51 2.68 1.03 5.8 1.06 8.16 2.83 3.02 2.37 1.44 7.56-2.01 8.63-3.52 1.03-7.3.62-10.85-.07-1.82-.35-.57-2.99-1.01-4.21 3.52.69 7.41 2.04 10.86.37l-.08-1.66c-2.7-1.65-6.04-1.61-8.83-3.04-3.19-1.78-3.03-7.35.48-8.68ZM66.46 18.72c2.03.02 4.06 0 6.09-.04 1.23 3.39 2.23 6.85 3.23 10.3.87-3.45 1.95-6.84 3.01-10.24 2.08-.01 4.17-.01 6.26-.01 1.12 6.05 1.86 12.16 2.46 18.28-1.41-.01-2.81-.02-4.22-.04-.45-4.72-1.03-9.42-1.63-14.13-1.3 4.13-2.77 8.2-3.85 12.39-1.37.02-2.73.03-4.1.04-1.2-4.13-2.45-8.25-3.85-12.32-.66 4.67-1.27 9.35-1.65 14.05h-4.25c.67-6.11 1.22-12.25 2.5-18.28ZM96.36 19.45c4.57-2.15 10.88-.73 13.39 3.84 1.95 4.15 1.18 10.05-2.98 12.56-4.1 2.3-9.8 1.99-13.31-1.26-3.8-4.43-3.07-12.93 2.9-15.14m3.02 3.04c-4.56 1.06-5.05 8.27-1.13 10.38 3.01 1.91 7.61-.15 7.91-3.8 1.2-3.96-2.89-7.88-6.78-6.58ZM113.55 18.73c5.48.01 10.96 0 16.45 0v3.74c-2-.01-3.99-.01-5.98-.01-.04 4.85-.01 9.69-.02 14.54h-4.46c-.01-4.84 0-9.69-.02-14.53-2 0-4.01 0-6.01.01l.04-3.75ZM138.37 19.45c4.56-2.14 10.82-.73 13.36 3.79 1.99 4.17 1.2 10.15-3.02 12.64-3.06 1.71-6.96 1.92-10.21.62-7.11-2.43-7.24-14.49-.13-17.05m3.1 3.02c-4.62.97-5.18 8.24-1.25 10.39 3.04 1.94 7.7-.17 7.95-3.87 1.12-3.9-2.85-7.73-6.7-6.52Z"/></g><path fill="#fff" d="M7 18.73c1.65.01 3.29.01 4.94 0 2.56 3.87 5.23 7.66 7.79 11.53.01-3.84 0-7.68.01-11.52 1.42 0 2.84-.01 4.26-.01v18.25c-1.39.02-2.78.05-4.18.09-2.99-4.01-5.68-8.23-8.57-12.31.02 4.08.02 8.16.02 12.24H7V18.73Z"/></svg>
