<?xml version="1.0" encoding="UTF-8" ?><!DOCTYPE svg PUBLIC "-//W3C//DTD SVG 1.1//EN" "http://www.w3.org/Graphics/SVG/1.1/DTD/svg11.dtd">
<svg width="175pt" height="55pt" viewBox="0 0 175 55" version="1.1" xmlns="http://www.w3.org/2000/svg">
<g id="#ff0523ff">
<path fill="#ff0523" opacity="1.00" d=" M 0.40 18.00 C 1.88 18.00 3.35 18.00 4.82 18.00 C 7.80 21.52 10.77 25.06 13.76 28.57 C 13.73 25.05 13.73 21.53 13.73 18.00 C 15.49 18.00 17.24 18.00 19.00 18.00 C 19.00 24.49 19.00 30.97 19.00 37.46 C 17.52 37.47 16.05 37.48 14.57 37.49 C 11.55 33.92 8.50 30.38 5.47 26.81 C 5.46 30.37 5.46 33.92 5.48 37.48 C 3.78 37.47 2.08 37.48 0.38 37.49 C 0.42 30.99 0.39 24.50 0.40 18.00 Z" />
<path fill="#ff0523" opacity="1.00" d=" M 26.39 18.01 C 28.13 18.00 29.87 18.00 31.61 18.01 C 31.60 24.50 31.58 30.99 31.62 37.48 C 29.87 37.48 28.13 37.48 26.38 37.48 C 26.42 30.99 26.40 24.50 26.39 18.01 Z" />
<path fill="#ff0523" opacity="1.00" d=" M 40.51 19.51 C 44.66 17.00 50.02 17.70 54.23 19.73 C 53.66 21.01 53.08 22.29 52.50 23.57 C 49.46 22.33 45.44 20.74 42.91 23.82 C 46.09 26.74 51.32 25.44 54.17 28.83 C 55.78 31.56 54.47 35.51 51.42 36.57 C 46.93 38.41 41.71 37.52 37.48 35.36 C 38.12 34.05 38.75 32.75 39.39 31.44 C 42.70 32.94 47.15 35.11 50.13 31.76 C 47.38 29.56 43.70 29.66 40.61 28.24 C 37.23 26.67 37.39 21.28 40.51 19.51 Z" />
<path fill="#ff0523" opacity="1.00" d=" M 60.39 18.02 C 61.86 18.01 63.33 18.00 64.80 17.99 C 67.14 21.69 69.42 25.44 71.78 29.13 C 74.10 25.44 76.37 21.71 78.65 17.99 C 80.14 18.00 81.64 18.00 83.13 18.00 C 83.13 24.49 83.13 30.97 83.13 37.45 C 81.46 37.47 79.79 37.48 78.12 37.51 C 78.14 34.13 78.14 30.74 78.12 27.36 C 76.45 30.06 74.77 32.76 73.09 35.46 C 72.38 35.47 70.97 35.49 70.26 35.50 C 68.67 32.82 66.99 30.20 65.36 27.54 C 65.41 30.85 65.40 34.15 65.41 37.46 C 63.73 37.47 62.06 37.48 60.38 37.49 C 60.41 31.00 60.40 24.51 60.39 18.02 Z" />
<path fill="#ff0523" opacity="1.00" d=" M 96.33 18.62 C 100.55 17.31 105.72 17.76 108.99 20.97 C 113.08 24.65 112.68 32.08 108.15 35.26 C 102.74 39.30 93.17 38.12 90.26 31.54 C 88.03 26.49 90.95 20.03 96.33 18.62 M 98.36 22.53 C 94.39 24.10 93.73 30.21 97.46 32.41 C 100.84 35.27 106.41 32.23 106.47 28.00 C 106.86 23.94 101.95 20.64 98.36 22.53 Z" />
<path fill="#ff0523" opacity="1.00" d=" M 115.60 18.00 C 121.56 18.00 127.51 18.00 133.47 18.00 C 133.46 19.33 133.46 20.67 133.47 22.00 C 131.35 22.00 129.24 22.00 127.13 22.00 C 127.13 27.16 127.13 32.31 127.13 37.46 C 125.38 37.47 123.62 37.47 121.87 37.47 C 121.87 32.31 121.86 27.16 121.87 22.00 C 119.78 22.00 117.69 22.00 115.60 22.00 C 115.60 20.66 115.60 19.33 115.60 18.00 Z" />
<path fill="#ff0523" opacity="1.00" d=" M 144.36 18.61 C 148.57 17.30 153.73 17.77 157.01 20.98 C 161.06 24.64 160.68 32.00 156.23 35.20 C 150.83 39.31 141.22 38.16 138.28 31.58 C 136.01 26.52 138.94 20.01 144.36 18.61 M 146.44 22.49 C 142.39 24.03 141.70 30.25 145.51 32.45 C 148.89 35.25 154.40 32.21 154.47 28.01 C 154.86 23.98 150.04 20.70 146.44 22.49 Z" />
</g></svg>
