<svg width="175pt" height="55pt" viewBox="0 0 175 55" xmlns="http://www.w3.org/2000/svg"><g fill="#ef0925"><path d="M0 18.73c1.64.01 3.29 0 4.93.01 2.59 3.85 5.23 7.67 7.81 11.53-.01-3.84-.01-7.69 0-11.53 1.42 0 2.84 0 4.26-.01v18.28c-1.44-.02-2.88-.02-4.32-.02-2.82-4.07-5.62-8.16-8.42-12.25 0 4.09.01 8.17.01 12.25-1.43 0-2.85.01-4.27.02V18.73ZM23 18.73c1.42 0 2.84.01 4.26.01.01 6.09 0 12.17 0 18.26H23V18.73ZM35.37 19.43c3.77-1.64 8.04-.89 11.91-.01 0 .94-.01 2.82-.01 3.76-3.41-.84-7.07-1.48-10.46-.2 1.05 3.76 6.1 2.63 8.89 4.38 3.88 1.56 3.33 7.45-.22 9.05-3.6 1.47-7.69.94-11.41.25-1.96-.3-.7-2.94-1.13-4.22 3.53.67 7.43 2.04 10.89.34-.03-.4-.08-1.22-.1-1.63-2.7-1.64-6.02-1.64-8.82-3.04-3.19-1.77-3.04-7.34.46-8.68ZM52.46 36.99c.62-6.11 1.32-12.22 2.44-18.27 2.08.01 4.16.02 6.25.02 1.09 3.39 2.15 6.79 3.08 10.23.94-3.43 2.01-6.83 3.06-10.23h6.24c1.19 6.03 1.84 12.16 2.49 18.27l-4.26-.03c-.35-4.71-1.02-9.39-1.64-14.07-1.35 4.1-2.66 8.22-3.89 12.37-1.36-.02-2.72-.04-4.08-.05-1.09-4.16-2.45-8.24-3.81-12.31-.68 4.68-1.17 9.38-1.67 14.09-1.4-.01-2.8-.02-4.21-.02ZM85.37 19.45c4.55-2.14 10.86-.74 13.36 3.82 1.98 4.13 1.2 10.07-2.96 12.57-4.1 2.31-9.83 2.01-13.33-1.28-3.78-4.43-3.03-12.91 2.93-15.11m3.08 3.02c-4.63 1.01-5.14 8.31-1.18 10.42 3.02 1.87 7.57-.17 7.88-3.8 1.2-3.94-2.81-7.87-6.7-6.62ZM103.55 18.73c5.48.01 10.96 0 16.45.01v3.73c-2-.01-3.99 0-5.99-.01-.02 4.85-.01 9.69-.01 14.54h-4.46c-.01-4.84 0-9.69-.02-14.53-2 0-4.01 0-6.01.01l.04-3.75ZM129.29 19.26c4.54-1.87 10.52-.37 12.99 4.05 2.05 4.26 1.03 10.39-3.39 12.74-4 2.02-9.23 1.71-12.7-1.23-4.26-4.45-3.25-13.56 3.1-15.56m2.12 3.39c-4.26 1.43-4.4 8.58-.36 10.36 3.35 1.9 8.04-1.05 7.71-4.94.56-3.9-3.84-6.92-7.35-5.42Z"/></g></svg>
