<svg version="1.1" id="sloy_1" xmlns="http://www.w3.org/2000/svg" x="0" y="0" width="175" height="55" viewBox="0 0 474 149" style="enable-background:new 0 0 474 149" xml:space="preserve"><style>.st0{fill:#f3000b}.st1{fill:#4490f3}.st2{fill:#555}</style><g id="_x23_ff0005ff"><path class="st0" d="M68.3 1.1c1.3-1.1 2.8.2 4 .9 9.8 5.9 19.9 11.5 29.8 17.2C79.5 34.3 57.3 49.9 34.8 65l-.8 1.2c9.7 3.6 19.3 7.6 29 11.1-10.3 17.1-21.4 33.8-32 50.7-4.2 6.8-8.8 13.4-12.7 20.4 1.5-10 4.3-19.8 6.3-29.7-5.8-3.7-12.5-6.5-17.8-10.8-.3-23.7 0-47.4-.2-71 14.5-9 29.5-17.1 44.3-25.7 5.9-3.4 11.8-6.5 17.4-10.1zM128.3 1.6c.2.6.2 1.3-.3 1.9-2.4 4.2-3.1 9-5 13.4-1.1 4.2-2.9 8.2-3.9 12.4 4.3 2.2 8.4 4.7 12.5 7.1.2 1.6.4 3.2.4 4.8v65c.1 1.4-.1 3-1.7 3.5-19.9 11.4-39.7 22.9-59.5 34.3-1.3 1.3-2.9-.1-4.1-.8-8.5-5.1-17.3-9.9-25.8-15 21.8-19.3 42.8-39.5 64.5-58.9.1-.4.2-1.1.3-1.5-7.3-1.6-14.4-3.8-21.7-5.4-1.6 0-.5-1.6.1-2.2 8.3-11 16.6-22 25-32.9 4-5.3 7.9-10.8 12-16 2.3-3.4 5.4-6.2 7.2-9.7z"/></g><g id="_x23_0091f6ff"><path class="st1" d="M176.5 49h7.4v29c0 4.2.8 8.8 3.7 12.1 5.3 6 15.9 6 21.3.1 3-3.2 3.6-7.9 3.8-12.1.1-9.7 0-19.3 0-29h7.1v30c0 5.8-1.6 12.1-6 16.2-4.3 3.9-10.5 5.1-16.1 4.9-5.8.1-12.1-1.5-16.1-6-4-4.3-5.1-10.4-5.1-16V49zM231.7 49.1c2.7-.1 5.3-.2 8-.1 6.1 13.7 12 27.5 18.4 41.2 6.1-13.8 12.2-27.6 18.5-41.2 2.5.1 5 .1 7.5.1-7.2 17.1-15.1 34-22.5 51-2.5 0-4.9 0-7.4-.1-7.4-17.1-15.2-33.8-22.5-50.9zM295 49h7.2v51H295V49zM338 49c2.3 0 4.7 0 7-.1 6.2 12.6 11.8 25.5 17.8 38.2 1.8 4.3 4.2 8.4 5.7 12.9h-7.8c-2-4.5-4-9-6-13.6-8.7.1-17.4 0-26.1 0l-6 13.5c-2.6.1-5.3.1-7.9-.1C322.2 82.9 330.1 66 338 49m-7.1 32h21.2c-3.5-7.8-7-15.6-10.7-23.3-3.4 7.8-7 15.5-10.5 23.3zM380 49h22.8c7.3.2 15.4 3.8 17.7 11.3 1.6 5.8 1.3 12.9-2.9 17.6-1.8 2.2-4.4 3.5-7 4.7 3.6 6 8.5 11.2 11.8 17.4-2.7.1-5.3 0-8 .1-4-5.3-7.6-10.8-11.5-16.1-5.3.1-10.5-.1-15.8.1.1 5.3 0 10.6.1 15.9H380V49m7.2 5.5v24c7.2-.5 15.1 1.5 21.7-2.4 6.9-4 6.9-15.3.1-19.3-6.6-3.8-14.5-1.8-21.8-2.3z"/></g><path class="st2" d="M159.2 130.7h-8.6v7.1h9.4l-.2 1.2h-10.5v-16.8h10.3v1.2h-9v6.1h8.6v1.2zM165.1 122.2h1.3v15.6h9l-.2 1.2h-10.1v-16.8zM189.7 130.7h-8.6v7.1h9.4l-.2 1.2h-10.5v-16.8h10.3v1.2h-9v6.1h8.6v1.2zM208.2 134.5c-.8 2.7-2.8 4.7-6.3 4.7-4.8 0-7.4-3.8-7.4-8.6 0-4.5 2.5-8.7 7.4-8.7 3.6 0 5.8 2 6.3 4.8H207c-.8-2.2-2.2-3.6-5.1-3.6-4.2 0-5.9 3.8-5.9 7.4 0 3.6 1.7 7.4 6 7.4 2.7 0 4.1-1.4 5-3.5h1.2zM217.2 123.4h-5.6v-1.2h12.6v1.2h-5.7V139h-1.3v-15.6zM229.8 131.2v7.8h-1.3v-16.8h6c3.3 0 5.1 1.8 5.1 4.4 0 2.1-1.3 3.5-3.1 3.9 1.7.4 2.9 1.5 2.9 4.4v.6c0 1.2-.1 2.8.2 3.4h-1.3c-.3-.7-.2-2.1-.2-3.5v-.4c0-2.8-.8-3.9-4-3.9h-4.3zm0-1.2h4.1c3 0 4.3-1.1 4.3-3.3 0-2.1-1.3-3.2-4-3.2h-4.4v6.5zM246.8 122.2V139h-1.3v-16.8h1.3zM265.9 134.5c-.8 2.7-2.8 4.7-6.3 4.7-4.8 0-7.4-3.8-7.4-8.6 0-4.5 2.5-8.7 7.4-8.7 3.6 0 5.8 2 6.3 4.8h-1.3c-.8-2.2-2.2-3.6-5.1-3.6-4.2 0-5.9 3.8-5.9 7.4 0 3.6 1.7 7.4 6 7.4 2.7 0 4.1-1.4 5-3.5h1.3zM293.3 130.5c0 4.6-2.4 8.8-7.6 8.8-4.7 0-7.5-3.8-7.5-8.6s2.7-8.6 7.7-8.6c4.5-.1 7.4 3.5 7.4 8.4zm-13.7 0c0 3.9 2.1 7.5 6.2 7.5 4.3 0 6.2-3.6 6.2-7.5s-2.1-7.3-6.1-7.3c-4.5 0-6.3 3.5-6.3 7.3zm9.6 6.9 5.1 3.6-.9 1-5.5-3.9 1.3-.7zM300.6 133.2l-2.1 5.8h-1.3l6.2-16.8h1.5l6.4 16.8h-1.4l-2.2-5.8h-7.1zm6.6-1.2c-1.9-5-2.8-7.4-3.2-8.5-.4 1.3-1.5 4.2-3 8.5h6.2zM315.1 137.9l10.9-14.5h-10.3v-1.2h11.9v1.1l-10.8 14.5h11l-.2 1.2h-12.4v-1.1zM334.2 133.2l-2.1 5.8h-1.3l6.2-16.8h1.5l6.4 16.8h-1.4l-2.2-5.8h-7.1zm6.7-1.2c-1.9-5-2.8-7.4-3.2-8.5-.4 1.3-1.5 4.2-3 8.5h6.2zM363.6 130.5c0 4.6-2.4 8.8-7.6 8.8-4.7 0-7.5-3.8-7.5-8.6s2.7-8.6 7.7-8.6c4.5-.1 7.4 3.5 7.4 8.4zm-13.8 0c0 3.9 2.1 7.5 6.2 7.5 4.3 0 6.2-3.6 6.2-7.5s-2.1-7.3-6.1-7.3c-4.4 0-6.3 3.5-6.3 7.3zm9.7 6.9 5.1 3.6-.9 1-5.5-3.9 1.3-.7zM369.3 134.5c.5 2.2 2 3.6 4.8 3.6 3.1 0 4.2-1.5 4.2-3.4s-.8-3.1-4.5-4c-3.6-.9-5.1-2-5.1-4.5 0-2.2 1.6-4.3 5.2-4.3 3.7 0 5.3 2.3 5.5 4.3H378c-.4-1.8-1.6-3.1-4.2-3.1-2.4 0-3.7 1.1-3.7 3 0 1.8 1.1 2.6 4.2 3.3 4.7 1.2 5.4 3.1 5.4 5.1 0 2.5-1.8 4.6-5.7 4.6-4.2 0-5.7-2.4-6-4.7h1.3zM388.5 123.4h-5.6v-1.2h12.6v1.2h-5.7V139h-1.3v-15.6zM399.6 133.2l-2.1 5.8h-1.3l6.2-16.8h1.5l6.4 16.8h-1.4l-2.2-5.8h-7.1zm6.7-1.2c-1.9-5-2.8-7.4-3.2-8.5-.4 1.3-1.5 4.2-3 8.5h6.2zM415.1 139v-16.8h1.9c2.6 4 8.8 13.4 9.8 15.2-.1-2.4-.1-4.9-.1-7.6v-7.6h1.3V139h-1.8c-2.5-3.9-8.7-13.7-9.9-15.5.1 2.2.1 4.7.1 7.7v7.8h-1.3z"/></svg>
