<?xml version="1.0" encoding="UTF-8" ?><!DOCTYPE svg PUBLIC "-//W3C//DTD SVG 1.1//EN" "http://www.w3.org/Graphics/SVG/1.1/DTD/svg11.dtd">
<svg width="175pt" height="55pt" viewBox="0 0 175 55" version="1.1" xmlns="http://www.w3.org/2000/svg">
<g id="#ff0523ff">
<path fill="#ff0523" opacity="1.00" d=" M 7.87 18.00 C 9.35 18.00 10.82 18.00 12.30 18.00 C 15.36 21.47 18.22 25.11 21.27 28.58 C 21.27 25.06 21.27 21.53 21.26 18.01 C 23.00 18.00 24.73 18.00 26.47 18.00 C 26.48 24.50 26.44 30.99 26.49 37.49 C 25.02 37.48 23.54 37.47 22.07 37.46 C 19.03 33.97 16.09 30.41 13.05 26.92 C 12.97 30.43 13.00 33.95 13.00 37.47 C 11.29 37.47 9.58 37.46 7.87 37.46 C 7.87 30.98 7.86 24.49 7.87 18.00 Z" />
<path fill="#ff0523" opacity="1.00" d=" M 33.87 18.00 C 35.62 18.00 37.38 18.00 39.13 18.00 C 39.14 24.49 39.13 30.98 39.13 37.46 C 37.38 37.46 35.62 37.46 33.87 37.46 C 33.87 30.98 33.86 24.49 33.87 18.00 Z" />
<path fill="#ff0523" opacity="1.00" d=" M 48.36 19.25 C 52.52 17.08 57.62 17.77 61.75 19.71 C 61.16 21.01 60.56 22.30 59.97 23.60 C 57.18 22.46 53.74 20.96 50.99 23.06 C 51.06 23.47 51.20 24.28 51.27 24.68 C 54.53 26.33 58.75 25.83 61.48 28.53 C 63.48 31.23 62.04 35.45 58.94 36.58 C 54.61 38.29 49.47 37.69 45.40 35.52 C 45.05 34.05 46.51 32.74 46.93 31.38 C 49.89 32.74 53.52 34.70 56.66 32.71 C 56.75 32.32 56.92 31.54 57.01 31.16 C 54.21 29.48 50.76 29.65 47.91 28.14 C 44.54 26.30 45.04 20.88 48.36 19.25 Z" />
<path fill="#ff0523" opacity="1.00" d=" M 68.39 18.01 C 69.86 18.01 71.33 18.00 72.80 17.99 C 75.15 21.68 77.40 25.45 79.79 29.12 C 82.11 25.43 84.37 21.71 86.65 18.00 C 88.14 18.00 89.64 18.00 91.13 18.01 C 91.14 24.49 91.13 30.97 91.13 37.45 C 89.46 37.47 87.79 37.48 86.12 37.51 C 86.14 34.13 86.14 30.74 86.12 27.36 C 84.45 30.06 82.77 32.76 81.10 35.45 C 80.39 35.46 78.97 35.49 78.27 35.50 C 76.68 32.81 74.97 30.20 73.36 27.53 C 73.41 30.84 73.40 34.15 73.40 37.46 C 71.73 37.47 70.06 37.48 68.38 37.50 C 68.41 31.00 68.40 24.51 68.39 18.01 Z" />
<path fill="#ff0523" opacity="1.00" d=" M 105.21 18.24 C 111.96 16.25 120.66 21.45 119.24 29.13 C 117.95 39.44 101.04 40.58 97.61 31.13 C 95.44 25.56 99.29 19.02 105.21 18.24 M 107.40 22.05 C 103.58 22.61 100.95 27.28 103.25 30.64 C 105.47 34.86 112.45 34.16 113.63 29.51 C 115.17 25.67 111.35 21.39 107.40 22.05 Z" />
<path fill="#ff0523" opacity="1.00" d=" M 123.60 18.00 C 129.56 18.00 135.51 18.00 141.47 18.00 C 141.46 19.33 141.46 20.66 141.47 22.00 C 139.35 22.00 137.24 22.00 135.13 22.01 C 135.13 27.16 135.14 32.31 135.13 37.46 C 133.38 37.46 131.62 37.46 129.87 37.46 C 129.86 32.31 129.87 27.16 129.87 22.01 C 127.78 22.00 125.69 22.00 123.60 21.99 C 123.60 20.66 123.60 19.33 123.60 18.00 Z" />
<path fill="#ff0523" opacity="1.00" d=" M 153.22 18.23 C 159.53 16.47 167.86 20.75 167.30 28.00 C 167.42 35.94 157.62 39.48 151.18 36.68 C 145.78 34.90 143.50 28.00 146.15 23.14 C 147.59 20.52 150.32 18.78 153.22 18.23 M 155.33 22.07 C 151.52 22.65 148.96 27.34 151.27 30.68 C 153.50 34.86 160.43 34.15 161.62 29.53 C 163.19 25.68 159.31 21.32 155.33 22.07 Z" />
</g>
</svg>