<svg xmlns="http://www.w3.org/2000/svg" width="175pt" height="55pt" viewBox="0 0 175 55"><g fill="#ff0523"><path d="M0 12h31v31H0V12m7 6.73V37h4.27c0-4.09 0-8.17-.01-12.25 2.82 4.09 5.6 8.2 8.45 12.27l4.29-.03V18.73c-1.42 0-2.84.01-4.26.01-.01 3.84-.01 7.68-.01 11.52-2.57-3.87-5.23-7.67-7.8-11.53H7ZM34.54 18.73h4.19c.01 6.09 0 12.18.01 18.26-1.4 0-2.8.01-4.21.01 0-6.09 0-12.18.01-18.27ZM46.5 19.58c3.82-1.8 8.24-1.07 12.21-.21.01 1.28.02 2.56.04 3.84-3.46-.62-8-2.35-10.75.71 2.92 2.42 7.1 1.92 10.14 4.06 3.04 2.11 1.87 7.42-1.5 8.57-3.9 1.41-8.15.61-12.13-.08.01-1.01.02-3.04.03-4.06 3.53.57 8.24 2.66 11.15-.35-2.41-3.51-8.06-1.83-10.7-5.21-1.41-2.3-1.1-5.94 1.51-7.27ZM66.37 18.78c2.08-.02 4.15-.07 6.23-.08 1.15 3.4 2.2 6.83 3.18 10.28.88-3.45 1.95-6.85 3-10.24 2.09 0 4.19-.01 6.28-.01 1.1 6.05 1.85 12.16 2.46 18.28l-4.23-.03c-.45-4.73-1.04-9.43-1.62-14.14-1.32 4.12-2.78 8.2-3.86 12.4l-4.09.03c-1.21-4.13-2.47-8.25-3.85-12.33-.67 4.67-1.28 9.35-1.66 14.06h-4.25c.62-6.09 1.32-12.18 2.41-18.22ZM97.22 19.29c4.43-1.86 10.22-.52 12.85 3.66 2.35 4.27 1.35 10.71-3.21 13.12-4 2.01-9.23 1.68-12.7-1.27-4.21-4.45-3.23-13.47 3.06-15.51m2.21 3.35c-4.28 1.41-4.44 8.59-.37 10.37 3.35 1.89 8.01-1.05 7.7-4.93.56-3.9-3.81-6.91-7.33-5.44ZM115 18.73c5.49 0 10.97.01 16.45 0l.04 3.75c-2.01-.01-4.01-.01-6.01-.01-.02 4.84-.01 9.69-.01 14.53H121c0-4.85.01-9.69-.01-14.54-2 .01-4 0-5.99.01v-3.74ZM141.27 19.27c6.41-3.04 15.4 2.21 13.95 9.74-.15 7.01-8.71 10.13-14.4 7.41-7.15-2.63-6.91-14.88.45-17.15m2.12 3.38c-4.25 1.46-4.38 8.62-.3 10.38 3.36 1.86 8-1.1 7.67-4.97.55-3.91-3.85-6.9-7.37-5.41Z"/></g><path fill="#fff" d="M7 18.73h4.93c2.57 3.86 5.23 7.66 7.8 11.53 0-3.84 0-7.68.01-11.52 1.42 0 2.84-.01 4.26-.01v18.26l-4.29.03c-2.85-4.07-5.63-8.18-8.45-12.27.01 4.08.01 8.16.01 12.25H7V18.73Z"/></svg>
