<svg xmlns="http://www.w3.org/2000/svg" xml:space="preserve" id="Слой_1" x="0" y="0" version="1.1" viewBox="0 0 660 165"><style>.st0{fill:#cf0000}</style><path d="M158 5.5c28-1.8 56.1-2.1 84.1.2 8.1.9 16.4 1.3 24.1 4.1 8.9 3.1 17.1 7.9 24.7 13.4 12.9 9.1 23.3 21.3 32.8 33.8-8.8-3.1-18.3-3.3-27.5-3 3.9-2.7 8.6-3.6 13.2-4.5-7.2-13-18.7-23-31.5-30.2-7.3-4.2-15.3-7.8-23.9-7.7-6.6.1-13.7 2-18.5 6.8-5.2 5.9-8 13.4-12.2 20-3.3 5.5-10.7 4.8-16.3 5.2-22.1-.8-44-4.1-66.1-4.9-19.1-.7-38.3-.4-57.5-.3 8.1-8.5 18.3-14.8 28.4-20.6 7.5-4 15.2-8.2 23.7-9.6 7.5-1.4 15-2.1 22.5-2.7" class="st0"/><path d="M243.6 20.6c3-3.6 7.4-6.5 12.3-6.3 10.3.2 19.9 4.9 28.3 10.5 9.3 6.2 17.4 14.3 23.2 23.8-12.8-1.1-25.6-2.5-38.5-1.5-17.8.6-35.5 3.2-52.9 6.5 3.9-3.2 8.5-5.5 13.3-7.1 2.9-9.5 7.9-18.4 14.3-25.9M9.7 67.1c-.2-4.1.7-9.9 5.3-11.1 3.2.5 3.9 4.4 3.2 7-1.1-1.3-1.6-3.3-3.4-3.8-3.4 3.7-2.3 9.9 1 13.3-.3 2.6-.7 5.2-1.3 7.8-3.4-3.3-4.2-8.6-4.8-13.2M137.7 63.9c4.9-2.8 10.6-3.8 16.2-4.3 8-.4 16-1.2 24.1-1.4 2.4.2 5.9.1 6.7 2.9.8 3.4-2.1 6.2-3.8 8.7-4.1 5.5-10.7 8.4-17.3 9.4-15.2 2.5-30.8 2.6-46.2 2.2 2.1-3.2 4.5-6.1 7.1-8.9 6.5 5.5 16 3.6 23.7 2.4 5.1-1.5 12.2-2.5 14.3-8-1.6-2.9-5.5-3.3-8.4-3.7-5.5-.9-11 .6-16.4.7M22.5 77.1c-.4-5.4-.9-11.7 2.5-16.3 9.6-.8 19.3-.2 28.9 0 18.8-.1 37.6 2.1 56.4 3.5-5.2 7.4-8.9 16.1-16.5 21.5-7.3 5.8-16.8 7.3-25.8 6.9-13.2-.4-27 .6-39.6-4.1-4.8-1.6-5.3-7.3-5.9-11.5m20.4-3.5c2.8 1.9 3.1 6.6 7.1 6.7 3.1.6 5.8-1.3 7.2-4 .5-.3 1.4-1 1.9-1.3-.8-2.7-3.4-4.8-5.7-6.3-4.5-1.7-7.3 2.7-10.5 4.9M427.1 68.1c8.4-3.7 18.1-2.1 26.6.3 0 2.5 0 5.1.1 7.7-7.3-2.7-16.1-5.2-23.3-1.2 2.3 3.3 6.7 3.2 10.3 4.2 4.9 1.2 10.5 2.1 14 6.1 3.5 4.1 1.1 11-3.8 12.8-9.1 3.4-19.4 2.3-28.4-.8v-7.8c6.6 3.1 14.2 4.6 21.5 3.3 1.7-.2 3-1.5 4.2-2.6-3.1-3.5-8.1-3.4-12.3-4.4-4.3-1.1-9.1-1.9-12.1-5.4-3.3-3.9-1.3-10.3 3.2-12.2M542.2 66.2c6.8-.8 14.1-.1 20 3.6 8.8 5.7 8.8 20.6 0 26.3-5.4 3.4-12 4.2-18.3 3.8-6-.5-12.6-2.4-16.3-7.6-3.7-5.5-3.7-13.4.1-18.9 3.3-4.5 9.1-6.5 14.5-7.2m-.8 7.4c-1.9.5-3.8 1.3-5.1 2.8-4.2 4.2-3.3 12.6 2.3 15.1 5.2 2.3 11.5 2.4 16.7-.2 6.3-2.9 6.3-13.5 0-16.5-4.2-2.3-9.3-2.2-13.9-1.2M631.1 66.3c6.8-.8 14.2-.1 20 3.6 8.8 5.7 8.8 20.7 0 26.3-5.4 3.4-12 4.2-18.2 3.8-6-.5-12.6-2.4-16.3-7.6-3.7-5.5-3.7-13.3 0-18.8 3.3-4.7 9.1-6.6 14.5-7.3m-.7 7.3c-1.9.5-3.8 1.3-5.1 2.7-4.3 4.2-3.4 12.6 2.3 15.1 5.2 2.3 11.5 2.4 16.6-.1 6.3-2.9 6.3-13.5 0-16.5-4.1-2.2-9.2-2.2-13.8-1.2M353 67c3.2 0 6.4 0 9.7.1 7 7.5 14.5 14.7 21.6 22.1V67h8.6v32c-3.9-.5-8.9 1.6-11.6-2.2-6.5-6.7-13.1-13.2-19.6-19.9.1 7.3 0 14.7 0 22H353zM404 67h8.7v32H404zM466 67h11.8c4.4 8 8.6 16.2 13.1 24.2 4.4-8 8.7-16.1 13-24.2h11.7v32H507V76.5L495 99h-8.3c-4-7.4-7.8-14.9-11.9-22.3-.1 7.4 0 14.8 0 22.2h-8.7c-.1-10.6-.1-21.2-.1-31.9M573.7 67h36v7h-13.6v25h-8.7V74h-13.7z" class="st0"/><path d="M46.4 72.1c1.5-1.1 3-2 4.6-2.8 1.7.7 3.3 1.7 4.5 3.1-3-.1-6-.2-9.1-.3M203.6 75.6c3.9-3.9 10.2-6.8 15.4-3.7 5.9 3.5 8.6 10.3 10.8 16.5 3.7 10.7 3.9 22.1 4.7 33.3 4.7-6.2 9.8-12.1 16.3-16.4-.7 4.8-1.9 10 .4 14.5 1.4 2.9 4.9 3.4 7.7 3.8 14.4 1.5 28.6-3.3 43.1-2.3 10.1-11 6.5-28.2 15.6-39.8 2-2.7 5.7-5 9.1-3.5 3.7 2.1 5.2 6.3 6.4 10.2 4.4 15.8 3.8 33.2-2.9 48.2-1.2 2.9-4 5-7.1 5.2-13.3 1.6-26.7 1.4-40.1 2-18.6.9-37.2 3.1-55.6 5.6-2.6.3-5.3 1-7.3 2.8-7.6 6-17.8 5.6-27 6.1-24.6 0-49.3.4-73.9-.6-24.8-.9-49.5-2.8-74.1-5.6-9-1.1-18.1-1.9-27-3.7-2-.2-3.5-1.6-4.8-3 4.2-1.6 8.7-2.4 13.2-3.1-3.6-2-7.3-4.1-9.9-7.4-2-2-3.2-5.1-6.2-5.9-2.2-1-5.1-1.3-6.3-3.6-2.7-5-3.1-10.5-4.1-15.7V95.2c2.4 4.9 2.6 10.7 5.5 15.4 1.7 2.9 4.3 6.7 8.3 6.1 4.5-1.3 6.2-7.1 11.2-7.6 9.3-1.5 18.7-.2 28.1-.3 14.9.7 30.3 1.9 44.1 8.3 8.6 4.2 16.9 8.9 25.8 12.4 11.1-3.3 22.7-4.2 34.2-3.8 2.7.2 7.2-.8 6.5-4.4-1.6-7-8.5-11-11-17.5 11.5 1 21.8 8 33.4 7.7 3.2-.1 3.4-3.7 4.2-6 2.4-10.8 5.3-22 13.3-29.9m6.9 6.1c-6.9 2.9-9.9 10.6-11.9 17.3-3 12.4-2.5 25.9 3.1 37.5 2.2 4.5 5.9 9.2 11.3 9.7 4.8 0 8.4-3.8 10.7-7.6 5.7-9.8 6.7-21.5 5.5-32.5-1-7.3-3-14.8-7.8-20.6-2.6-3.1-6.9-5.3-10.9-3.8m110.9 5.6c-4.6 3.6-5.7 9.8-6.6 15.2-1 9-.7 18.8 3.8 26.9 1.4 2.7 5 5.5 7.7 2.8 4.4-4 5.5-10.3 6.3-15.9.7-8.8.5-18.2-3.9-26-1.3-2.4-4.6-5.1-7.3-3M257.7 135c14.5 1.8 29 1.5 43.5 2.9-1.5-2.4-2.7-4.9-3.8-7.6-13.2 1.4-26.7 1.8-39.7 4.7m-196.3 5.5c13.9-.5 27.8-1 41.6-1.8 5.3-.3 10.7-.1 15.9-.9-17.1-1.5-34.3-1.5-51.5-2.5-2 1.8-4 3.5-6 5.2M45.6 75.5c3.3-.1 6.7-.2 10.1 0-1.2 1.9-3 3.8-5.4 3.4-2.2-.1-3.3-2.1-4.7-3.4" class="st0"/></svg>